<svg width="78" height="77" viewBox="0 0 78 77" fill="none" xmlns="http://www.w3.org/2000/svg">
<g clip-path="url(#clip0_7_58)">
<path d="M66.3031 11.2763C59.0312 4.0046 49.3631 0 39.0793 0C28.7956 0 19.1275 4.0046 11.8556 11.2763C4.5838 18.548 0.579346 28.2163 0.579346 38.5C0.579346 48.7837 4.58395 58.4519 11.8556 65.7237C19.1273 72.9955 28.7956 77 39.0793 77C49.3631 77 59.0312 72.9954 66.3031 65.7237C73.5749 58.452 77.5793 48.7837 77.5793 38.5C77.5793 28.2163 73.5747 18.5481 66.3031 11.2763ZM64.6015 64.0222C57.7843 70.8394 48.7203 74.5938 39.0793 74.5938C29.4384 74.5938 20.3744 70.8394 13.5572 64.0222C6.73995 57.205 2.9856 48.1409 2.9856 38.5C2.9856 28.8591 6.73995 19.795 13.5572 12.9778C20.3744 6.1606 29.4384 2.40625 39.0793 2.40625C48.7203 2.40625 57.7843 6.1606 64.6015 12.9778C71.4187 19.795 75.1731 28.8591 75.1731 38.5C75.1731 48.1409 71.4187 57.205 64.6015 64.0222Z" fill="url(#paint0_linear_7_58)"/>
<path d="M7.7981 38.5C7.7981 21.2515 21.8309 7.21875 39.0793 7.21875C45.3007 7.21875 51.31 9.04013 56.4577 12.486C57.0098 12.8557 57.7571 12.7077 58.1268 12.1555C58.4964 11.6034 58.3484 10.8561 57.7962 10.4864C52.2512 6.7745 45.7789 4.8125 39.0793 4.8125C30.081 4.8125 21.6214 8.3166 15.2587 14.6793C8.89595 21.0421 5.39185 29.5017 5.39185 38.5C5.39185 46.8016 8.43786 54.7771 13.9689 60.9575C14.2065 61.2231 14.5356 61.3583 14.8659 61.3583C15.1514 61.3583 15.4382 61.2573 15.6677 61.0517C16.1628 60.6085 16.2051 59.8479 15.7619 59.3529C10.6265 53.6143 7.7981 46.2086 7.7981 38.5Z" fill="url(#paint1_linear_7_58)"/>
<path d="M67.0931 19.7834C66.7234 19.2312 65.9761 19.0832 65.424 19.4529C64.8719 19.8225 64.7238 20.5698 65.0935 21.1219C68.5392 26.2695 70.3606 32.2788 70.3606 38.5C70.3606 55.7484 56.3278 69.7813 39.0793 69.7813C31.9233 69.7813 24.9282 67.303 19.3828 62.803C18.8668 62.3843 18.1092 62.4631 17.6905 62.9791C17.2718 63.4951 17.3506 64.2527 17.8666 64.6714C23.8394 69.5182 31.3729 72.1875 39.0793 72.1875C48.0777 72.1875 56.5373 68.6834 62.9 62.3207C69.2627 55.9579 72.7669 47.4983 72.7669 38.5C72.7669 31.8005 70.8049 25.3283 67.0931 19.7834Z" fill="url(#paint2_linear_7_58)"/>
<path d="M59.9322 15.1827C60.7412 15.9065 61.5211 16.6812 62.2503 17.4849C62.4878 17.7466 62.8141 17.8795 63.1417 17.8795C63.43 17.8795 63.7195 17.7763 63.9499 17.5673C64.4418 17.1208 64.4788 16.3598 64.0323 15.8677C63.2473 15.0027 62.4076 14.1689 61.5369 13.3896C61.0418 12.9465 60.2811 12.9886 59.8381 13.4837C59.395 13.9788 59.437 14.7395 59.9322 15.1827Z" fill="url(#paint3_linear_7_58)"/>
<path d="M39.0793 15.6406C39.7438 15.6406 40.2825 15.1019 40.2825 14.4375V10.8281C40.2825 10.1637 39.7438 9.625 39.0793 9.625C38.4149 9.625 37.8762 10.1637 37.8762 10.8281V14.4375C37.8762 15.1019 38.4149 15.6406 39.0793 15.6406Z" fill="url(#paint4_linear_7_58)"/>
<path d="M37.8762 62.5625V66.1719C37.8762 66.8363 38.4149 67.375 39.0793 67.375C39.7438 67.375 40.2825 66.8363 40.2825 66.1719V62.5625C40.2825 61.8981 39.7438 61.3594 39.0793 61.3594C38.4149 61.3594 37.8762 61.8981 37.8762 62.5625Z" fill="url(#paint5_linear_7_58)"/>
<path d="M16.22 38.5C16.22 37.8356 15.6813 37.2969 15.0168 37.2969H11.4075C10.743 37.2969 10.2043 37.8356 10.2043 38.5C10.2043 39.1644 10.743 39.7031 11.4075 39.7031H15.0168C15.6813 39.7031 16.22 39.1644 16.22 38.5Z" fill="url(#paint6_linear_7_58)"/>
<path d="M61.9387 38.5C61.9387 39.1644 62.4774 39.7031 63.1418 39.7031H66.7512C67.4156 39.7031 67.9543 39.1644 67.9543 38.5C67.9543 37.8356 67.4156 37.2969 66.7512 37.2969H63.1418C62.4774 37.2969 61.9387 37.8356 61.9387 38.5Z" fill="url(#paint7_linear_7_58)"/>
<path d="M28.09 17.0597L26.2853 13.9338C25.9531 13.3583 25.2172 13.1614 24.6419 13.4935C24.0665 13.8257 23.8693 14.5616 24.2015 15.137L26.0062 18.2628C26.2291 18.6487 26.6335 18.8645 27.0493 18.8645C27.2534 18.8645 27.4603 18.8125 27.6498 18.7032C28.2251 18.371 28.4222 17.6351 28.09 17.0597Z" fill="url(#paint8_linear_7_58)"/>
<path d="M52.1525 58.7371C51.8203 58.1618 51.0843 57.9649 50.509 58.2968C49.9336 58.629 49.7365 59.3649 50.0687 59.9403L51.8734 63.0661C52.0963 63.452 52.5007 63.6679 52.9165 63.6679C53.1206 63.6679 53.3275 63.6158 53.517 63.5065C54.0924 63.1743 54.2896 62.4384 53.9573 61.863L52.1525 58.7371Z" fill="url(#paint9_linear_7_58)"/>
<path d="M15.116 53.5392C15.32 53.5392 15.527 53.4872 15.7165 53.3779L18.8423 51.5732C19.4177 51.241 19.6149 50.5051 19.2827 49.9297C18.9505 49.3543 18.2145 49.1575 17.6392 49.4894L14.5133 51.2941C13.9379 51.6263 13.7408 52.3621 14.073 52.9375C14.2957 53.3234 14.7001 53.5392 15.116 53.5392Z" fill="url(#paint10_linear_7_58)"/>
<path d="M59.9191 27.6721C60.1232 27.6721 60.3301 27.62 60.5196 27.5107L63.6455 25.706C64.2209 25.3738 64.4181 24.6379 64.0858 24.0625C63.7536 23.4871 63.0178 23.2903 62.4424 23.6222L59.3165 25.4269C58.7411 25.7591 58.5439 26.4949 58.8762 27.0703C59.099 27.4562 59.5034 27.6721 59.9191 27.6721Z" fill="url(#paint11_linear_7_58)"/>
<path d="M53.5169 13.4935C52.9415 13.1611 52.2056 13.3583 51.8734 13.9339L50.0687 17.0597C49.7365 17.6351 49.9336 18.371 50.509 18.7032C50.6985 18.8127 50.9053 18.8646 51.1096 18.8646C51.5254 18.8646 51.9298 18.6487 52.1527 18.2628L53.9573 15.137C54.2894 14.5616 54.0922 13.8257 53.5169 13.4935Z" fill="url(#paint12_linear_7_58)"/>
<path d="M27.6497 58.2968C27.0743 57.9646 26.3384 58.1618 26.0062 58.7372L24.2015 61.863C23.8693 62.4384 24.0665 63.1743 24.6419 63.5065C24.8313 63.616 25.0381 63.6679 25.2424 63.6679C25.6582 63.6679 26.0626 63.452 26.2855 63.0661L28.0902 59.9403C28.4222 59.3649 28.2251 58.629 27.6497 58.2968Z" fill="url(#paint13_linear_7_58)"/>
<path d="M59.3165 51.5731L62.4424 53.3778C62.6319 53.4873 62.8386 53.5392 63.0429 53.5392C63.4587 53.5392 63.8631 53.3234 64.086 52.9375C64.4182 52.3621 64.221 51.6262 63.6456 51.294L60.5198 49.4893C59.9444 49.157 59.2085 49.3543 58.8763 49.9297C58.5439 50.5051 58.7411 51.2409 59.3165 51.5731Z" fill="url(#paint14_linear_7_58)"/>
<path d="M18.8422 25.4268L15.7163 23.6221C15.1409 23.2898 14.4051 23.4871 14.0728 24.0625C13.7406 24.6379 13.9378 25.3737 14.5132 25.7059L17.6391 27.5106C17.8286 27.6201 18.0353 27.672 18.2396 27.672C18.6554 27.672 19.0598 27.4562 19.2827 27.0703C19.6147 26.4949 19.4176 25.759 18.8422 25.4268Z" fill="url(#paint15_linear_7_58)"/>
<path d="M47.4549 54.2084C47.659 54.2084 47.8659 54.1564 48.0554 54.0471C48.6308 53.7149 48.828 52.979 48.4958 52.4036L41.8214 40.8432C42.3615 40.212 42.6887 39.3938 42.6887 38.5C42.6887 36.9316 41.6828 35.5942 40.2825 35.0976V19.25C40.2825 18.5856 39.7438 18.0469 39.0793 18.0469C38.4149 18.0469 37.8762 18.5856 37.8762 19.25V35.0976C36.4759 35.5942 35.47 36.9316 35.47 38.5C35.47 40.4903 37.0891 42.1094 39.0793 42.1094C39.3045 42.1094 39.5247 42.0876 39.7385 42.048L46.4119 53.6067C46.6348 53.9926 47.0392 54.2084 47.4549 54.2084ZM37.8762 38.5C37.8762 37.8366 38.416 37.2969 39.0793 37.2969C39.7427 37.2969 40.2825 37.8366 40.2825 38.5C40.2825 39.1634 39.7427 39.7031 39.0793 39.7031C38.416 39.7031 37.8762 39.1634 37.8762 38.5Z" fill="url(#paint16_linear_7_58)"/>
</g>
<defs>
<linearGradient id="paint0_linear_7_58" x1="0.579345" y1="39.1754" x2="77.5793" y2="39.1754" gradientUnits="userSpaceOnUse">
<stop stop-color="#8FFF73"/>
<stop offset="1" stop-color="#8FFFF9"/>
</linearGradient>
<linearGradient id="paint1_linear_7_58" x1="5.39185" y1="33.5814" x2="58.3302" y2="33.5814" gradientUnits="userSpaceOnUse">
<stop stop-color="#8FFF73"/>
<stop offset="1" stop-color="#8FFFF9"/>
</linearGradient>
<linearGradient id="paint2_linear_7_58" x1="17.4215" y1="46.1828" x2="72.7668" y2="46.1828" gradientUnits="userSpaceOnUse">
<stop stop-color="#8FFF73"/>
<stop offset="1" stop-color="#8FFFF9"/>
</linearGradient>
<linearGradient id="paint3_linear_7_58" x1="59.5314" y1="15.5233" x2="64.3444" y2="15.5233" gradientUnits="userSpaceOnUse">
<stop stop-color="#8FFF73"/>
<stop offset="1" stop-color="#8FFFF9"/>
</linearGradient>
<linearGradient id="paint4_linear_7_58" x1="37.8762" y1="12.6856" x2="40.2825" y2="12.6856" gradientUnits="userSpaceOnUse">
<stop stop-color="#8FFF73"/>
<stop offset="1" stop-color="#8FFFF9"/>
</linearGradient>
<linearGradient id="paint5_linear_7_58" x1="37.8762" y1="64.42" x2="40.2825" y2="64.42" gradientUnits="userSpaceOnUse">
<stop stop-color="#8FFF73"/>
<stop offset="1" stop-color="#8FFFF9"/>
</linearGradient>
<linearGradient id="paint6_linear_7_58" x1="10.2043" y1="38.5211" x2="16.22" y2="38.5211" gradientUnits="userSpaceOnUse">
<stop stop-color="#8FFF73"/>
<stop offset="1" stop-color="#8FFFF9"/>
</linearGradient>
<linearGradient id="paint7_linear_7_58" x1="61.9387" y1="38.5211" x2="67.9543" y2="38.5211" gradientUnits="userSpaceOnUse">
<stop stop-color="#8FFF73"/>
<stop offset="1" stop-color="#8FFFF9"/>
</linearGradient>
<linearGradient id="paint8_linear_7_58" x1="24.0401" y1="16.1469" x2="28.2514" y2="16.1469" gradientUnits="userSpaceOnUse">
<stop stop-color="#8FFF73"/>
<stop offset="1" stop-color="#8FFFF9"/>
</linearGradient>
<linearGradient id="paint9_linear_7_58" x1="49.9073" y1="60.9502" x2="54.1187" y2="60.9502" gradientUnits="userSpaceOnUse">
<stop stop-color="#8FFF73"/>
<stop offset="1" stop-color="#8FFFF9"/>
</linearGradient>
<linearGradient id="paint10_linear_7_58" x1="13.9116" y1="51.4706" x2="19.4441" y2="51.4706" gradientUnits="userSpaceOnUse">
<stop stop-color="#8FFF73"/>
<stop offset="1" stop-color="#8FFFF9"/>
</linearGradient>
<linearGradient id="paint11_linear_7_58" x1="58.7148" y1="25.6034" x2="64.2472" y2="25.6034" gradientUnits="userSpaceOnUse">
<stop stop-color="#8FFF73"/>
<stop offset="1" stop-color="#8FFFF9"/>
</linearGradient>
<linearGradient id="paint12_linear_7_58" x1="49.9073" y1="16.1468" x2="54.1186" y2="16.1468" gradientUnits="userSpaceOnUse">
<stop stop-color="#8FFF73"/>
<stop offset="1" stop-color="#8FFFF9"/>
</linearGradient>
<linearGradient id="paint13_linear_7_58" x1="24.0401" y1="60.9502" x2="28.2514" y2="60.9502" gradientUnits="userSpaceOnUse">
<stop stop-color="#8FFF73"/>
<stop offset="1" stop-color="#8FFFF9"/>
</linearGradient>
<linearGradient id="paint14_linear_7_58" x1="58.7148" y1="51.4705" x2="64.2474" y2="51.4705" gradientUnits="userSpaceOnUse">
<stop stop-color="#8FFF73"/>
<stop offset="1" stop-color="#8FFFF9"/>
</linearGradient>
<linearGradient id="paint15_linear_7_58" x1="13.9115" y1="25.6033" x2="19.4439" y2="25.6033" gradientUnits="userSpaceOnUse">
<stop stop-color="#8FFF73"/>
<stop offset="1" stop-color="#8FFFF9"/>
</linearGradient>
<linearGradient id="paint16_linear_7_58" x1="35.47" y1="36.4449" x2="48.6571" y2="36.4449" gradientUnits="userSpaceOnUse">
<stop stop-color="#8FFF73"/>
<stop offset="1" stop-color="#8FFFF9"/>
</linearGradient>
<clipPath id="clip0_7_58">
<rect width="77" height="77" fill="white" transform="translate(0.579346)"/>
</clipPath>
</defs>
</svg>
