<svg width="72" height="71" viewBox="0 0 72 71" fill="none" xmlns="http://www.w3.org/2000/svg">
<path d="M63.2716 43.6472C63.3578 43.3011 63.3517 42.9298 63.2403 42.5682V42.5678L62.2791 39.4404C61.5019 36.9122 59.8728 34.6846 57.692 33.1685C57.6851 33.1644 57.6786 33.1595 57.6721 33.1551L56.4009 32.3173C54.9201 31.3407 52.9448 32.4075 52.9448 34.1845V35.5703C52.9448 36.6424 53.1345 37.6699 53.4957 38.6209C52.038 39.054 50.8534 40.1534 50.3211 41.6159C47.7206 42.5215 45.396 44.2168 43.7324 46.4318C41.9684 48.7804 41.0088 51.5637 40.9413 54.5002C38.1747 55.9095 35.4088 56.9101 32.6889 57.4862C34.8603 52.5201 34.9071 46.8445 31.2052 42.8965C32.7843 41.9105 34.2895 40.8818 35.6903 39.8255C37.7022 38.3085 39.5787 36.6798 41.2675 34.9849C47.7389 28.5102 51.4619 21.3157 54.6706 14.3869C55.4405 12.7244 55.7972 11.6145 57.2329 10.8605C58.1909 10.3567 58.7869 9.36707 58.7869 8.27421V4.20507H60.7341V9.00305C60.7341 9.90008 61.1318 10.7305 61.8225 11.2806C62.4575 11.788 62.9129 12.4604 63.1753 13.279C65.331 20.0652 64.2727 27.2289 61.2346 33.6661C60.9311 34.3044 61.3935 35.058 62.1134 35.058C62.4884 35.058 62.8341 34.839 62.9937 34.501L62.9946 34.4998C64.0049 32.3584 64.7927 30.195 65.3355 28.0682C66.6903 22.7657 66.5071 17.338 65.0303 12.6867C64.6566 11.5056 63.9659 10.4908 63.0323 9.7518C62.813 9.57873 62.6817 9.298 62.6817 9.00305V4.20507C62.6817 3.12928 61.8079 2.25378 60.7341 2.25378H58.7869C57.7127 2.255 56.8401 3.12928 56.8392 4.20507V8.27421C56.8392 8.63457 56.639 8.97055 56.3314 9.13021C54.3005 10.1898 53.748 11.7445 52.905 13.5622C50.3536 19.0735 46.6522 26.8446 39.8915 33.6044C36.9709 36.5356 33.6221 39.1389 29.6703 41.5509C27.9782 40.3394 25.9225 39.6354 23.6613 39.5387C22.3949 39.4924 21.1449 39.6699 19.9244 40.0676C21.7433 36.4718 24.4376 33.9855 27.9648 32.657C29.0321 33.7271 30.3049 32.2414 29.4266 31.3622L28.9078 30.8422C28.6465 30.5806 28.2606 30.4896 27.9108 30.6058C24.1728 31.8546 21.1558 34.282 19.0197 37.7178C18.6841 35.1604 17.7611 32.607 15.2183 30.9937L11.9426 28.9157C11.2154 28.4542 10.3041 28.4948 9.62036 29.0185C8.94353 29.5369 8.66727 30.3973 8.91712 31.2107L9.87834 34.3385C10.4877 36.3215 11.6232 38.1176 13.1366 39.5326C9.32785 39.5549 5.69585 41.4587 3.69622 45.0663C2.03825 48.095 1.83959 51.7847 3.12176 55.7377C4.08461 58.6969 5.82748 61.5253 8.02984 63.7021C10.3529 65.9979 12.9842 67.3394 15.4283 67.4795C15.9357 67.514 16.4456 67.5047 16.9412 67.4523C17.8021 67.3609 18.6756 67.3609 19.5357 67.4519C19.8391 67.4844 20.1459 67.4998 20.4514 67.4998C20.648 67.4998 20.8442 67.4933 21.0384 67.4803C23.5061 67.3389 26.148 65.9861 28.4771 63.67C29.6561 62.4975 30.7014 61.1385 31.5655 59.6764C34.6897 59.1828 37.8712 58.159 41.0482 56.6237C41.9306 63.4916 47.8023 68.8157 54.892 68.8157C62.5883 68.8157 68.8496 62.5422 68.8496 54.8313C68.8496 50.4018 66.7805 46.2855 63.2716 43.6472V43.6472ZM11.7403 33.764L10.7794 30.637C10.7717 30.6131 10.7672 30.5972 10.803 30.5692C10.8814 30.5095 10.6421 30.4002 14.1766 32.6428C16.589 34.1732 17.1302 36.8829 17.2399 40.1034L15.5664 39.0004C13.7472 37.732 12.3882 35.873 11.7403 33.764V33.764ZM31.5046 55.1336C29.8174 60.3203 25.253 65.2849 20.9174 65.5331C20.5237 65.5595 20.128 65.5526 19.7416 65.512C19.2427 65.4592 18.7414 65.4328 18.2393 65.4328C17.7375 65.4328 17.2354 65.4592 16.7373 65.512C16.3522 65.553 15.9565 65.5595 15.551 65.5323C13.5688 65.4189 11.3836 64.2757 9.39814 62.3131C7.41272 60.3512 5.8417 57.8015 4.97432 55.134C3.86238 51.7067 4.01107 48.5492 5.40212 46.0093C6.91789 43.2751 9.6484 41.6273 12.8884 41.4888C14.3875 41.4339 15.8679 41.767 17.2979 42.4772L17.7042 42.7449C18.0841 42.996 18.609 42.9586 18.9486 42.5958C20.4497 41.804 22.011 41.4323 23.5845 41.4888C29.6459 41.7475 34.0344 47.3357 31.5046 55.1336V55.1336ZM54.892 34.1845C54.892 33.9578 55.1398 33.8217 55.3308 33.9473C56.5016 34.7192 57.9971 35.5512 59.3142 37.628C59.3435 37.8978 59.4824 38.1521 59.7144 38.3187C60 38.8602 60.2376 39.4274 60.418 40.0144L61.3793 43.1423C61.3862 43.1658 61.3914 43.1817 61.3549 43.2097C61.3069 43.2463 61.2781 43.2276 61.257 43.2142L57.9813 41.1357C54.6483 39.0215 54.892 35.9461 54.892 34.1845V34.1845ZM54.892 66.864C48.2695 66.864 42.882 61.4664 42.882 54.8313C42.882 49.9809 45.7096 45.7159 50.0485 43.8154C50.1225 44.5166 50.3496 45.1984 50.7233 45.8175C50.9062 46.121 51.2275 46.288 51.5578 46.288C51.7293 46.288 51.9031 46.2429 52.0604 46.1474C52.5207 45.8687 52.6685 45.269 52.3903 44.8079C51.9913 44.1478 51.8715 43.3681 52.0518 42.6125C52.2879 41.6228 53.0037 40.8562 53.9182 40.5349V43.2552C53.9182 43.7894 54.3293 44.2554 54.8624 44.2717C55.4137 44.2879 55.8658 43.8451 55.8658 43.2966V41.9885C56.4756 42.5146 56.8961 42.7571 57.8106 43.3377C57.8037 43.854 57.6619 44.3643 57.3942 44.8079C57.1159 45.269 57.2634 45.8687 57.7237 46.1474C57.8813 46.2429 58.0548 46.288 58.2266 46.288C58.5561 46.288 58.8775 46.1206 59.0611 45.8175C59.3122 45.4015 59.4978 44.9501 59.6144 44.4817L60.2149 44.8632C60.5521 45.0769 60.9287 45.1825 61.3041 45.1825C61.5154 45.1825 61.7262 45.1484 61.9297 45.0814C65.0527 47.3459 66.9024 50.9482 66.9024 54.8317C66.9024 61.4664 61.5149 66.864 54.892 66.864V66.864Z" fill="url(#paint0_linear_7_201)"/>
<path d="M20.7211 29.7355C24.8378 29.7355 28.187 26.3798 28.187 22.255C28.187 18.1306 24.8378 14.7753 20.7211 14.7753C16.6045 14.7753 13.2556 18.1306 13.2556 22.255C13.2556 26.3798 16.6045 29.7355 20.7211 29.7355ZM20.7211 16.7266C23.764 16.7266 26.2394 19.2068 26.2394 22.255C26.2394 25.3036 23.764 27.7839 20.7211 27.7839C17.6786 27.7839 15.2028 25.3036 15.2028 22.255C15.2028 19.2068 17.6786 16.7266 20.7211 16.7266Z" fill="url(#paint1_linear_7_201)"/>
<path d="M18.7646 21.6443C18.9547 21.8345 19.2041 21.9299 19.4532 21.9299C19.7022 21.9299 19.9517 21.8345 20.1418 21.6443L20.427 21.3583L20.7126 21.6443C20.9023 21.8345 21.1518 21.9299 21.4008 21.9299C21.6499 21.9299 21.8993 21.8345 22.0894 21.6443C22.4693 21.2629 22.4693 20.6453 22.0894 20.2643L21.8042 19.9787L22.0894 19.6926C22.4693 19.3116 22.4693 18.6936 22.0894 18.313C21.7092 17.9319 21.0929 17.9319 20.7126 18.313L20.427 18.5986L20.1418 18.313C19.7611 17.9319 19.1448 17.9319 18.7646 18.313C18.3847 18.6936 18.3847 19.3116 18.7646 19.6926L19.0498 19.9787L18.7646 20.2643C18.3847 20.6453 18.3847 21.2633 18.7646 21.6443Z" fill="url(#paint2_linear_7_201)"/>
<path d="M38.4724 13.2087C40.0987 11.5791 40.5302 9.31381 39.7968 7.24674L40.0833 7.12811C40.5801 6.92173 40.8162 6.35093 40.6102 5.85325C40.4042 5.35517 39.8346 5.11913 39.3378 5.32511L38.8665 5.52052C38.8576 5.50793 38.849 5.49493 38.8393 5.48193L39.2009 5.11954C39.5811 4.73846 39.5811 4.12054 39.2009 3.73987C38.8206 3.35879 38.2039 3.35879 37.8236 3.74027L37.4608 4.10347C37.4482 4.09372 37.4356 4.08519 37.4235 4.07544L37.6189 3.60255C37.8244 3.10488 37.5888 2.53407 37.0919 2.3281C36.5955 2.12172 36.0255 2.35857 35.8195 2.85624L35.7017 3.14144C33.6212 2.39594 31.3762 2.8408 29.7507 4.46952C27.4773 6.74744 25.0767 12.7569 27.639 15.3245C30.2167 17.9071 36.2258 15.4594 38.4724 13.2087V13.2087ZM28.7989 10.1637C29.2689 8.5086 30.2045 6.77507 31.128 5.8496C32.7794 4.19488 35.1813 4.48374 36.8197 6.12545C38.5488 7.85776 38.6646 10.2563 37.0952 11.829C36.1722 12.7537 34.4415 13.6917 32.7896 14.1626C31.0557 14.6562 29.6451 14.5749 29.0162 13.9444C28.3873 13.3143 28.3061 11.9009 28.7989 10.1637Z" fill="url(#paint3_linear_7_201)"/>
<path d="M34.06 10.2706C34.4399 9.88955 34.4399 9.27203 34.06 8.89054C33.6798 8.50987 33.0635 8.50987 32.6828 8.89054C32.3025 9.27203 32.3025 9.88955 32.6828 10.2706C33.0635 10.6517 33.6798 10.6517 34.06 10.2706Z" fill="url(#paint4_linear_7_201)"/>
<path d="M31.3055 13.0303C31.6862 12.6493 31.6862 12.0317 31.3055 11.6502C30.9253 11.2692 30.309 11.2692 29.9283 11.6502C29.548 12.0317 29.548 12.6493 29.9283 13.0303C30.309 13.4114 30.9253 13.4114 31.3055 13.0303Z" fill="url(#paint5_linear_7_201)"/>
<path d="M31.3055 10.2706C31.6862 9.88955 31.6862 9.27203 31.3055 8.89054C30.9253 8.50987 30.309 8.50987 29.9283 8.89054C29.548 9.27203 29.548 9.88955 29.9283 10.2706C30.309 10.6517 30.9253 10.6517 31.3055 10.2706Z" fill="url(#paint6_linear_7_201)"/>
<path d="M34.06 13.0303C34.4399 12.6493 34.4399 12.0317 34.06 11.6502C33.6798 11.2692 33.0635 11.2692 32.6828 11.6502C32.3025 12.0317 32.3025 12.6493 32.6828 13.0303C33.0635 13.4114 33.6798 13.4114 34.06 13.0303Z" fill="url(#paint7_linear_7_201)"/>
<path d="M36.8141 10.2706C37.1943 9.88955 37.1943 9.27203 36.8141 8.89054C36.4342 8.50987 35.8171 8.50987 35.4372 8.89054C35.057 9.27203 35.057 9.88955 35.4372 10.2706C35.8171 10.6517 36.4338 10.6517 36.8141 10.2706V10.2706Z" fill="url(#paint8_linear_7_201)"/>
<path d="M34.06 7.51082C34.4399 7.13015 34.4399 6.51181 34.06 6.13114C33.6798 5.75007 33.0635 5.75007 32.6828 6.13114C32.3025 6.51263 32.3025 7.13015 32.6828 7.51082C33.0635 7.8923 33.6798 7.8923 34.06 7.51082Z" fill="url(#paint9_linear_7_201)"/>
<path d="M38.4513 15.8981C38.0698 16.1269 37.7481 16.4385 37.5072 16.8033C36.4399 16.2711 35.0757 16.4023 34.125 17.3546C33.1894 18.2927 33.0395 19.6565 33.5839 20.7433C32.9911 21.1312 32.5499 21.7289 32.3606 22.4378C32.1729 23.1402 32.2521 23.8691 32.5771 24.5118C31.9019 24.9538 31.4351 25.6595 31.2946 26.4594C31.0272 27.9748 31.9909 29.4459 33.488 29.8086C34.7324 30.1101 35.9585 29.5718 36.6199 28.5671C37.4726 28.9977 38.5305 29.0087 39.4308 28.4676C39.8147 28.2364 40.1389 27.9215 40.3807 27.5527C41.4435 28.0869 42.8073 27.9683 43.7632 27.0111C44.694 26.0779 44.8496 24.7161 44.3056 23.6257C44.9296 23.2194 45.3822 22.582 45.5557 21.8219C45.6991 21.1946 45.6215 20.5568 45.3737 19.9974C45.8624 19.8089 46.1179 19.2661 45.9449 18.7668C45.7681 18.2581 45.2132 17.9896 44.7045 18.1659L44.1309 18.3662L44.5152 17.9807C44.8955 17.6 44.8955 16.9821 44.5152 16.601C44.135 16.2203 43.5182 16.2203 43.138 16.601L42.7537 16.9865L42.9531 16.4113C43.1299 15.9022 42.8617 15.346 42.3535 15.1689C41.8583 14.9966 41.3183 15.2493 41.1286 15.734C40.2958 15.368 39.3012 15.3887 38.4513 15.8981V15.8981ZM40.8946 18.6664C40.8751 18.7379 40.8653 18.8094 40.8625 18.8805L40.5086 19.2356C39.623 20.1229 40.9157 21.5867 41.9623 20.5385C42.3003 20.1985 42.6647 20.1278 43.0206 20.2476C43.9221 20.5515 43.8949 21.8987 42.9259 22.1237C41.9659 22.3472 41.645 23.5501 42.3636 24.2266C42.5546 24.407 42.6667 24.6649 42.6708 24.9351C42.6842 25.7992 41.6019 26.2697 40.9819 25.6075C40.3136 24.8928 39.1078 25.2158 38.8868 26.171C38.715 26.9124 37.7716 27.2061 37.224 26.6191C36.5537 25.9028 35.3511 26.2278 35.1277 27.1866C35.0147 27.6705 34.5097 28.0491 33.9458 27.9122C33.1264 27.7131 32.9139 26.5996 33.657 26.1356C34.0694 25.8776 34.4224 26.0324 34.5666 26.0544C35.7663 26.3127 36.9408 25.7683 37.5685 24.7608C37.6559 24.8075 37.746 24.8502 37.8387 24.8884C39.8891 25.7338 42.1093 23.9747 41.0108 22.8741C40.6305 22.4934 40.0138 22.4934 39.6335 22.8741C39.0384 23.4709 38.0556 23.0606 37.9768 22.2997C37.9094 20.7351 35.9808 20.989 36.0239 22.2156C36.0336 23.0338 36.2189 23.5477 35.707 23.9666C35.4702 24.1612 35.1553 24.2091 34.9469 24.1396C34.7169 24.1396 34.047 23.672 34.242 22.9424C34.335 22.5934 34.6117 22.3253 34.9635 22.2424C35.9191 22.0189 36.2449 20.8127 35.5266 20.1412C35.3341 19.9612 35.2211 19.7032 35.2162 19.4327C35.2016 18.5637 36.2977 18.0981 36.9043 18.7457C37.5726 19.4595 38.7743 19.1369 38.9977 18.1842C39.0571 17.9331 39.222 17.7101 39.4507 17.5732C40.184 17.1336 41.1233 17.8088 40.8946 18.6664V18.6664Z" fill="url(#paint10_linear_7_201)"/>
<path d="M49.8279 48.34C49.8279 48.8783 49.3912 49.315 48.8533 49.315C48.3142 49.315 47.8783 48.8783 47.8783 48.34C47.8783 47.8013 48.3142 47.3649 48.8533 47.3649C49.3912 47.3649 49.8279 47.8013 49.8279 48.34V48.34Z" fill="url(#paint11_linear_7_201)"/>
<path d="M52.428 51.9801C52.428 52.5192 51.9913 52.9551 51.453 52.9551C50.9147 52.9551 50.4779 52.5192 50.4779 51.9801C50.4779 51.4418 50.9147 51.0051 51.453 51.0051C51.9913 51.0051 52.428 51.4418 52.428 51.9801Z" fill="url(#paint12_linear_7_201)"/>
<path d="M47.2274 54.8402C47.2274 55.3793 46.7915 55.8152 46.2524 55.8152C45.7141 55.8152 45.2774 55.3793 45.2774 54.8402C45.2774 54.3019 45.7141 53.8652 46.2524 53.8652C46.7915 53.8652 47.2274 54.3019 47.2274 54.8402V54.8402Z" fill="url(#paint13_linear_7_201)"/>
<defs>
<linearGradient id="paint0_linear_7_201" x1="2.28738" y1="36.1186" x2="68.8496" y2="36.1186" gradientUnits="userSpaceOnUse">
<stop stop-color="#8FFF73"/>
<stop offset="1" stop-color="#8FFFF9"/>
</linearGradient>
<linearGradient id="paint1_linear_7_201" x1="13.2556" y1="22.3866" x2="28.187" y2="22.3866" gradientUnits="userSpaceOnUse">
<stop stop-color="#8FFF73"/>
<stop offset="1" stop-color="#8FFFF9"/>
</linearGradient>
<linearGradient id="paint2_linear_7_201" x1="18.4797" y1="20.0128" x2="22.3743" y2="20.0128" gradientUnits="userSpaceOnUse">
<stop stop-color="#8FFF73"/>
<stop offset="1" stop-color="#8FFFF9"/>
</linearGradient>
<linearGradient id="paint3_linear_7_201" x1="26.5351" y1="9.46717" x2="40.6846" y2="9.46717" gradientUnits="userSpaceOnUse">
<stop stop-color="#8FFF73"/>
<stop offset="1" stop-color="#8FFFF9"/>
</linearGradient>
<linearGradient id="paint4_linear_7_201" x1="32.3976" y1="9.59785" x2="34.3449" y2="9.59785" gradientUnits="userSpaceOnUse">
<stop stop-color="#8FFF73"/>
<stop offset="1" stop-color="#8FFFF9"/>
</linearGradient>
<linearGradient id="paint5_linear_7_201" x1="29.6431" y1="12.3574" x2="31.591" y2="12.3574" gradientUnits="userSpaceOnUse">
<stop stop-color="#8FFF73"/>
<stop offset="1" stop-color="#8FFFF9"/>
</linearGradient>
<linearGradient id="paint6_linear_7_201" x1="29.6431" y1="9.59785" x2="31.591" y2="9.59785" gradientUnits="userSpaceOnUse">
<stop stop-color="#8FFF73"/>
<stop offset="1" stop-color="#8FFFF9"/>
</linearGradient>
<linearGradient id="paint7_linear_7_201" x1="32.3976" y1="12.3574" x2="34.3449" y2="12.3574" gradientUnits="userSpaceOnUse">
<stop stop-color="#8FFF73"/>
<stop offset="1" stop-color="#8FFFF9"/>
</linearGradient>
<linearGradient id="paint8_linear_7_201" x1="35.152" y1="9.59785" x2="37.0993" y2="9.59785" gradientUnits="userSpaceOnUse">
<stop stop-color="#8FFF73"/>
<stop offset="1" stop-color="#8FFFF9"/>
</linearGradient>
<linearGradient id="paint9_linear_7_201" x1="32.3976" y1="6.83825" x2="34.3449" y2="6.83825" gradientUnits="userSpaceOnUse">
<stop stop-color="#8FFF73"/>
<stop offset="1" stop-color="#8FFFF9"/>
</linearGradient>
<linearGradient id="paint10_linear_7_201" x1="31.2501" y1="22.6331" x2="45.999" y2="22.6331" gradientUnits="userSpaceOnUse">
<stop stop-color="#8FFF73"/>
<stop offset="1" stop-color="#8FFFF9"/>
</linearGradient>
<linearGradient id="paint11_linear_7_201" x1="47.8783" y1="48.3571" x2="49.8279" y2="48.3571" gradientUnits="userSpaceOnUse">
<stop stop-color="#8FFF73"/>
<stop offset="1" stop-color="#8FFFF9"/>
</linearGradient>
<linearGradient id="paint12_linear_7_201" x1="50.4779" y1="51.9972" x2="52.428" y2="51.9972" gradientUnits="userSpaceOnUse">
<stop stop-color="#8FFF73"/>
<stop offset="1" stop-color="#8FFFF9"/>
</linearGradient>
<linearGradient id="paint13_linear_7_201" x1="45.2774" y1="54.8573" x2="47.2274" y2="54.8573" gradientUnits="userSpaceOnUse">
<stop stop-color="#8FFF73"/>
<stop offset="1" stop-color="#8FFFF9"/>
</linearGradient>
</defs>
</svg>
