<svg width="68" height="67" viewBox="0 0 68 67" fill="none" xmlns="http://www.w3.org/2000/svg">
<path d="M64.6198 51.3157C64.8397 51.0906 65.0491 50.854 65.2343 50.5986C66.344 49.0587 66.7628 47.1942 66.4027 45.2826L65.2511 40.7287C64.3361 37.1086 61.6865 34.303 58.325 33.099C60.1246 31.7611 61.2981 29.6266 61.2981 27.2188C61.2981 23.1789 58.0099 19.8906 53.97 19.8906C49.9301 19.8906 46.6419 23.1789 46.6419 27.2188C46.6419 29.2685 47.4909 31.1225 48.8518 32.4531L40.884 32.4542C38.8636 32.4542 37.22 34.0967 37.22 36.1172C37.22 36.6815 37.3592 37.2101 37.5885 37.6875H35.1262V24.9355L38.0219 24.3566C42.4093 23.4793 45.595 19.5944 45.595 15.1179V4.71094C45.595 2.69047 43.9514 1.04688 41.9309 1.04688C39.9104 1.04688 38.2669 2.69047 38.2669 4.71094V13.6094C38.2669 15.3409 36.8578 16.75 35.1262 16.75H31.8694C33.2314 15.4184 34.0794 13.5654 34.0794 11.5156C34.0794 7.47573 30.7911 4.1875 26.7512 4.1875C22.7113 4.1875 19.4231 7.47573 19.4231 11.5156C19.4231 13.7371 20.4208 15.7272 21.9869 17.0724C19.8806 17.5749 17.9533 18.6689 16.4207 20.2413C15.7161 20.0152 14.9676 19.8906 14.1887 19.8906C10.1488 19.8906 6.86061 23.1789 6.86061 27.2188C6.86061 29.6266 8.03415 31.7611 9.83268 33.098C6.47117 34.303 3.82258 37.1075 2.90656 40.7276L1.74244 45.3433C1.39592 47.1931 1.81572 49.0587 2.92436 50.5976C3.10965 50.854 3.31798 51.0906 3.53887 51.3147C2.47001 51.4089 1.62623 52.2987 1.62623 53.3906V55.4844C1.62623 56.6391 2.56528 57.5781 3.71998 57.5781H7.90748V63.8594H5.81373V65.9531H16.2825V63.8594H14.1887V57.5781H15.044L16.3746 62.6429C16.786 64.5608 18.5081 65.9531 20.4689 65.9531C20.7589 65.9531 21.052 65.9228 21.3441 65.861C22.4402 65.6255 23.3782 64.9795 23.9864 64.0394C24.5936 63.1014 24.7988 61.9802 24.5517 60.8391L22.1324 51.6361C21.6111 49.2063 20.023 47.2078 17.9365 46.0625H29.8919V65.9531H38.2669V46.0625H50.218C48.1336 47.2036 46.5508 49.1906 46.0368 51.59L43.5954 60.8842C43.3589 61.9802 43.5651 63.1004 44.1723 64.0394C44.7805 64.9795 45.7196 65.6265 46.8198 65.862C47.1067 65.9228 47.3998 65.9531 47.6898 65.9531C49.6506 65.9531 51.3727 64.5608 51.7715 62.689L53.1147 57.5781H55.0169V63.8594H52.9231V65.9531H63.3919V63.8594H61.2981V57.5781H64.4387C65.5934 57.5781 66.5325 56.6391 66.5325 55.4844V53.3906C66.5325 52.2987 65.6887 51.4089 64.6198 51.3157V51.3157ZM48.7356 27.2188C48.7356 24.3325 51.0837 21.9844 53.97 21.9844C56.8562 21.9844 59.2044 24.3325 59.2044 27.2188C59.2044 30.105 56.8562 32.4531 53.97 32.4531C51.0837 32.4531 48.7356 30.105 48.7356 27.2188ZM40.8924 39.7812H42.469H51.1078L52.4237 43.9688H15.735L17.0509 39.7812H25.7064H27.2663H40.8924ZM27.7667 27.8636L26.7512 28.8791L25.7358 27.8636L26.3796 18.8438H27.1239L27.7667 27.8636ZM21.5169 11.5156C21.5169 8.62939 23.865 6.28125 26.7512 6.28125C29.6375 6.28125 31.9856 8.62939 31.9856 11.5156C31.9856 14.4019 29.6375 16.75 26.7512 16.75C23.865 16.75 21.5169 14.4019 21.5169 11.5156ZM24.2796 18.8647L23.5792 28.6676L26.7512 31.8397L29.9233 28.6676L29.2219 18.8438H35.1262C38.0125 18.8438 40.3606 16.4956 40.3606 13.6094V4.71094C40.3606 3.84517 41.0651 3.14062 41.9309 3.14062C42.7967 3.14062 43.5012 3.84517 43.5012 4.71094V15.1179C43.5012 18.5988 41.0243 21.6211 37.6105 22.3037L33.0325 23.2207V37.6875H30.5702C30.7995 37.2101 30.9387 36.6815 30.9387 36.1172C30.9387 34.0967 29.2951 32.4542 27.2747 32.4542L19.3069 32.4531C20.6678 31.1225 21.5169 29.2685 21.5169 27.2188C21.5169 24.7471 20.2826 22.5612 18.4024 21.2338C20.024 19.7912 22.0937 18.9526 24.2796 18.8647V18.8647ZM8.95436 27.2188C8.95436 24.3325 11.3025 21.9844 14.1887 21.9844C17.075 21.9844 19.4231 24.3325 19.4231 27.2188C19.4231 30.105 17.075 32.4531 14.1887 32.4531C11.3025 32.4531 8.95436 30.105 8.95436 27.2188ZM12.095 63.8594H10.0012V57.5781H12.095V63.8594ZM3.71998 55.4844V53.3906H8.63925L13.9563 53.4388L14.4944 55.4844H3.71998ZM20.0983 52.1218L22.5177 61.3259C22.6349 61.8724 22.5334 62.4335 22.2298 62.9025C21.9262 63.3726 21.4561 63.6971 20.9107 63.8133C19.7832 64.0499 18.6631 63.3129 18.4118 62.1572L15.9925 52.9509C15.7842 51.993 14.9236 51.2969 13.9448 51.2969H10.0054H8.63925C6.99356 51.2969 5.4913 50.5777 4.62344 49.3727C3.85294 48.3039 3.55981 47.0099 3.78594 45.7935L4.9375 41.2406C5.93308 37.3002 9.46837 34.5469 13.5344 34.5469L27.2747 34.5479C28.1404 34.5479 28.845 35.2525 28.845 36.1172C28.845 36.983 28.1362 37.6875 27.2663 37.6875H25.7064H15.5141L12.5556 47.1052L13.9741 47.1125C16.9012 47.1272 19.4723 49.2146 20.0983 52.1218V52.1218ZM36.1731 63.8594H31.9856V46.0625H36.1731V63.8594ZM49.7364 62.2032C49.4988 63.3066 48.342 64.0426 47.2543 63.8144C46.7047 63.6971 46.2336 63.3726 45.93 62.9025C45.6264 62.4335 45.5238 61.8735 45.6306 61.371L48.0719 52.0757C48.6864 49.2146 51.2575 47.1261 54.1846 47.1125L55.6031 47.1052L52.6446 37.6875H42.468H40.8914C40.0225 37.6875 39.3137 36.983 39.3137 36.1172C39.3137 35.2525 40.0183 34.5479 40.884 34.5479L52.9231 34.5469H54.6243C58.6903 34.5469 62.2256 37.3002 63.2212 41.2416L64.3592 45.7317C64.5989 47.011 64.3058 48.3039 63.5353 49.3738C62.6674 50.5777 61.1651 51.2969 59.5195 51.2969H57.1106H54.2139C53.234 51.2969 52.3735 51.993 52.1777 52.907L49.7364 62.2032ZM59.2044 63.8594H57.1106V57.5781H59.2044V63.8594ZM64.4387 55.4844H53.6643L54.2139 53.3906H57.1106H59.5195H64.4387V55.4844Z" fill="url(#paint0_linear_7_195)"/>
<path d="M51.8762 9.42188H53.97V11.5156H51.8762V9.42188Z" fill="url(#paint1_linear_7_195)"/>
<path d="M56.0637 9.42188H58.1575V11.5156H56.0637V9.42188Z" fill="url(#paint2_linear_7_195)"/>
<path d="M60.2512 9.42188H62.345V11.5156H60.2512V9.42188Z" fill="url(#paint3_linear_7_195)"/>
<path d="M63.3919 5.23438H50.8294C49.0978 5.23438 47.6887 6.64347 47.6887 8.375V12.5625C47.6887 14.294 49.0978 15.7031 50.8294 15.7031H53.97V19.6467L60.5412 15.7031H63.3919C65.1234 15.7031 66.5325 14.294 66.5325 12.5625V8.375C66.5325 6.64347 65.1234 5.23438 63.3919 5.23438ZM64.4387 12.5625C64.4387 13.1404 63.9697 13.6094 63.3919 13.6094H59.9613L56.0637 15.947V13.6094H50.8294C50.2515 13.6094 49.7825 13.1404 49.7825 12.5625V8.375C49.7825 7.79713 50.2515 7.32812 50.8294 7.32812H63.3919C63.9697 7.32812 64.4387 7.79713 64.4387 8.375V12.5625Z" fill="url(#paint4_linear_7_195)"/>
<defs>
<linearGradient id="paint0_linear_7_195" x1="1.62401" y1="34.0693" x2="66.5325" y2="34.0693" gradientUnits="userSpaceOnUse">
<stop stop-color="#8FFF73"/>
<stop offset="1" stop-color="#8FFFF9"/>
</linearGradient>
<linearGradient id="paint1_linear_7_195" x1="51.8762" y1="10.4871" x2="53.97" y2="10.4871" gradientUnits="userSpaceOnUse">
<stop stop-color="#8FFF73"/>
<stop offset="1" stop-color="#8FFFF9"/>
</linearGradient>
<linearGradient id="paint2_linear_7_195" x1="56.0637" y1="10.4871" x2="58.1575" y2="10.4871" gradientUnits="userSpaceOnUse">
<stop stop-color="#8FFF73"/>
<stop offset="1" stop-color="#8FFFF9"/>
</linearGradient>
<linearGradient id="paint3_linear_7_195" x1="60.2512" y1="10.4871" x2="62.345" y2="10.4871" gradientUnits="userSpaceOnUse">
<stop stop-color="#8FFF73"/>
<stop offset="1" stop-color="#8FFFF9"/>
</linearGradient>
<linearGradient id="paint4_linear_7_195" x1="47.6887" y1="12.567" x2="66.5325" y2="12.567" gradientUnits="userSpaceOnUse">
<stop stop-color="#8FFF73"/>
<stop offset="1" stop-color="#8FFFF9"/>
</linearGradient>
</defs>
</svg>
