<svg width="67" height="67" viewBox="0 0 67 67" fill="none" xmlns="http://www.w3.org/2000/svg">
<path d="M64.71 27.986H60.8363V26.6966C60.8363 25.434 59.8089 24.4066 58.5462 24.4066H55.6854C54.4227 24.4066 53.3953 25.434 53.3953 26.6966V27.986H50.4066L48.1945 25.6262C47.6633 25.0596 47.3708 24.32 47.3708 23.5433V21.9203H55.8072C57.0699 21.9203 58.0972 20.8929 58.0972 19.6302V10.3798C58.0972 9.83775 57.6578 9.39832 57.1158 9.39832C56.5738 9.39832 56.1344 9.83775 56.1344 10.3798V15.7177H42.7214V14.7244C42.7214 11.2971 39.9329 8.50861 36.5056 8.50861H31.704V2.29004C31.704 2.10971 31.8508 1.96289 32.0311 1.96289H55.8072C55.9875 1.96289 56.1344 2.10971 56.1344 2.29004V5.85727C56.1344 6.39928 56.5738 6.83871 57.1158 6.83871C57.6578 6.83871 58.0972 6.39928 58.0972 5.85727V2.29004C58.0972 1.02738 57.0699 0 55.8072 0H32.0311C30.7684 0 29.7411 1.02738 29.7411 2.29004V8.50848H20.9001C17.4727 8.50848 14.6843 11.297 14.6843 14.7243V17.7707C14.6843 18.3127 15.1237 18.7521 15.6657 18.7521C16.2077 18.7521 16.6471 18.3127 16.6471 17.7707V14.7243C16.6471 12.3793 18.5551 10.4714 20.9001 10.4714H36.5054C38.8504 10.4714 40.7584 12.3793 40.7584 14.7243V37.1936C40.7584 38.0957 40.0246 38.8294 39.1226 38.8294H32.0789V34.3357C32.0789 33.073 31.0515 32.0456 29.7888 32.0456H27.6168C26.3542 32.0456 25.3268 33.073 25.3268 34.3357V38.8294H18.2829C17.3809 38.8294 16.6471 38.0957 16.6471 37.1936V22.4816C16.6471 21.9396 16.2077 21.5002 15.6657 21.5002C15.1237 21.5002 14.6843 21.9396 14.6843 22.4816V27.986H12.4709V21.1352C12.4709 20.4498 11.9132 19.8921 11.2277 19.8921H11.0092V16.699C11.0092 14.9889 9.6179 13.5976 7.90783 13.5976C6.19776 13.5976 4.80646 14.9889 4.80646 16.699V19.8921H4.58793C3.90249 19.8921 3.34477 20.4498 3.34477 21.1352V27.986H2.29004C1.02738 27.986 0 29.0134 0 30.276V33.2054C0 34.4681 1.02738 35.4955 2.29004 35.4955H3.34477V65.3643C3.34477 66.2663 4.07849 67 4.98051 67H8.75711C9.65912 67 10.3929 66.2663 10.3929 65.3643V51.4146H14.6843V52.5618C14.6843 53.4638 15.418 54.1975 16.32 54.1975H25.3268V54.8935L17.012 64.2797C16.5795 64.7679 16.4772 65.4409 16.7448 66.0357C17.0124 66.6305 17.5842 67 18.2364 67H21.4739C21.9466 67 22.3959 66.7956 22.7066 66.4394L25.3268 63.4353V64.7098C25.3268 65.9725 26.3542 66.9999 27.6168 66.9999H29.7888C31.0515 66.9999 32.0789 65.9725 32.0789 64.7098V63.4353L34.6992 66.4395C35.01 66.7956 35.4592 66.9999 35.9318 66.9999H39.1692C39.8216 66.9999 40.3931 66.6303 40.6608 66.0356C40.9284 65.4408 40.8262 64.7678 40.3935 64.2796L32.0787 54.8934V54.1975H41.0855C41.9875 54.1975 42.7213 53.4638 42.7213 52.5618V51.4146H56.6071V65.3643C56.6071 66.2663 57.3409 67 58.2429 67H62.0195C62.9215 67 63.6552 66.2663 63.6552 65.3643V45.7979C63.6552 45.2559 63.2158 44.8165 62.6738 44.8165C62.1318 44.8165 61.6923 45.2559 61.6923 45.7979V65.0371H58.57V35.4955H61.6923V41.087C61.6923 41.629 62.1318 42.0684 62.6738 42.0684C63.2158 42.0684 63.6552 41.629 63.6552 41.087V35.4955H64.71C65.9726 35.4955 67 34.4681 67 33.2054V30.276C67 29.0134 65.9726 27.986 64.71 27.986V27.986ZM55.3582 26.6966C55.3582 26.5163 55.5051 26.3695 55.6854 26.3695H58.5462C58.7265 26.3695 58.8734 26.5163 58.8734 26.6966V27.986H55.3582V26.6966ZM46.7623 26.9687L47.716 27.986H42.7214V21.9203H45.4079V23.5434C45.4079 24.8206 45.8888 26.0371 46.7623 26.9687V26.9687ZM56.1344 17.6804V19.6302C56.1344 19.8105 55.9875 19.9574 55.8072 19.9574H42.7214V17.6804H56.1344ZM27.2897 34.3357C27.2897 34.1553 27.4365 34.0085 27.6168 34.0085H29.7888C29.9692 34.0085 30.116 34.1553 30.116 34.3357V44.5547H27.2897V34.3357ZM5.30766 21.8551H10.508V23.6689H5.30766V21.8551ZM6.76936 16.699C6.76936 16.0712 7.2801 15.5605 7.90783 15.5605C8.53556 15.5605 9.04631 16.0712 9.04631 16.699V19.8921H6.76936V16.699ZM5.30766 25.6318H10.508V27.986H5.30766V25.6318ZM1.96289 33.2054V30.276C1.96289 30.0957 2.10971 29.9489 2.29004 29.9489H14.6843V33.5326H2.29004C2.10971 33.5326 1.96289 33.3858 1.96289 33.2054V33.2054ZM8.42996 65.0371H5.30766V35.4955H8.42996V65.0371ZM10.3929 49.4518V35.4955H14.6843V37.1936C14.6843 39.178 16.2985 40.7923 18.2829 40.7923H25.3268V44.5546H19.2075C18.3327 44.5546 17.4891 44.8727 16.8319 45.4502L15.2403 46.849C14.887 47.1595 14.6844 47.6073 14.6844 48.0776V49.4516H10.3929V49.4518ZM21.3251 65.0371H18.9634L25.3268 57.8537V60.449L21.3251 65.0371ZM38.4423 65.0371H36.0805L32.0789 60.449V57.8537L38.4423 65.0371ZM30.116 64.71C30.116 64.8903 29.9692 65.0371 29.7888 65.0371H27.6168C27.4365 65.0371 27.2897 64.8903 27.2897 64.71V54.1975H30.116V64.71ZM40.7585 52.2346H31.0987C31.0983 52.2346 31.0979 52.2346 31.0974 52.2346C31.0969 52.2346 31.0966 52.2346 31.0961 52.2346H26.3095C26.3091 52.2346 26.3088 52.2346 26.3082 52.2346C26.3077 52.2346 26.3074 52.2346 26.3069 52.2346H16.6471V48.2257L18.1276 46.9247C18.4263 46.6622 18.8097 46.5176 19.2074 46.5176H38.1981C38.5958 46.5176 38.9792 46.6622 39.2778 46.9247L40.7582 48.2257V52.2346H40.7585ZM56.6071 49.4518H42.7214V48.0777C42.7214 47.6074 42.5188 47.1596 42.1655 46.8491L40.5739 45.4503C39.9168 44.8727 39.073 44.5547 38.1982 44.5547H32.0789V40.7924H39.1228C41.1071 40.7924 42.7214 39.1781 42.7214 37.1938V35.4956H56.6071V49.4518ZM64.71 29.9489C64.8903 29.9489 65.0371 30.0957 65.0371 30.276V33.2054C65.0371 33.3858 64.8903 33.5326 64.71 33.5326H42.7214V29.9489H64.71Z" fill="url(#paint0_linear_7_119)"/>
<defs>
<linearGradient id="paint0_linear_7_119" x1="-2.83358e-07" y1="34.0877" x2="67" y2="34.0877" gradientUnits="userSpaceOnUse">
<stop stop-color="#8FFF73"/>
<stop offset="1" stop-color="#8FFFF9"/>
</linearGradient>
</defs>
</svg>
